<svg width="195" height="155" viewBox="0 0 195 155" fill="none" xmlns="http://www.w3.org/2000/svg">
<circle cx="97.499" cy="77.5" r="77.5" fill="#D8A966"/>
<path d="M103.229 53.0618C134.158 60.8289 161.289 70.801 180.134 80.5756C189.586 85.4779 196.75 90.2274 201.267 94.4883C206.061 99.0114 206.727 101.858 206.385 103.22C206.043 104.583 204.111 106.777 197.749 108.499C191.755 110.12 183.196 110.921 172.55 110.777C151.323 110.488 122.7 106.459 91.7699 98.6919C60.8403 90.9248 33.7092 80.9528 14.8642 71.1782C5.41309 66.276 -1.75104 61.5264 -6.26743 57.2657C-11.0619 52.7425 -11.7278 49.8962 -11.3856 48.5335C-11.0434 47.1708 -9.11179 44.9768 -2.74914 43.2554C3.2444 41.6339 11.8025 40.8326 22.4483 40.9772C43.6755 41.2656 72.299 45.2947 103.229 53.0618Z" stroke="#D8A966" stroke-width="8"/>
</svg>
