<svg width="239" height="155" viewBox="0 0 239 155" fill="none" xmlns="http://www.w3.org/2000/svg">
<circle cx="119.468" cy="77.5" r="77.5" fill="#D8A966"/>
<path d="M125.197 53.0619C156.127 60.829 183.258 70.801 202.103 80.5757C211.555 85.478 218.719 90.2275 223.236 94.4883C228.03 99.0115 228.696 101.858 228.354 103.221C228.012 104.583 226.08 106.777 219.717 108.499C213.724 110.12 205.165 110.921 194.519 110.777C173.292 110.488 144.668 106.459 113.739 98.692C82.809 90.9249 55.6779 80.9528 36.833 71.1782C27.3818 66.276 20.2177 61.5265 15.7013 57.2658C10.9068 52.7426 10.241 49.8963 10.5832 48.5336C10.9254 47.1709 12.857 44.9768 19.2196 43.2555C25.2132 41.634 33.7712 40.8326 44.4171 40.9773C65.6443 41.2656 94.2677 45.2948 125.197 53.0619Z" stroke="#D8A966" stroke-width="8"/>
</svg>
