<svg width="239" height="156" viewBox="0 0 239 156" fill="none" xmlns="http://www.w3.org/2000/svg">
<circle cx="119.5" cy="78.1729" r="77.5" fill="#1B2532"/>
<path d="M125.229 53.7346C156.159 61.5017 183.29 71.4738 202.135 81.2484C211.586 86.1507 218.751 90.9002 223.267 95.1611C228.062 99.6842 228.728 102.531 228.386 103.893C228.043 105.256 226.112 107.45 219.749 109.171C213.756 110.793 205.197 111.594 194.551 111.449C173.323 111.161 144.7 107.132 113.77 99.3647C82.8408 91.5976 55.7097 81.6256 36.8647 71.8509C27.4136 66.9488 20.2495 62.1992 15.7331 57.9385C10.9385 53.4153 10.2727 50.569 10.6149 49.2063C10.9571 47.8436 12.8887 45.6496 19.2513 43.9282C25.2449 42.3067 33.803 41.5054 44.4488 41.65C65.676 41.9384 94.2995 45.9675 125.229 53.7346Z" stroke="#1B2532" stroke-width="8"/>
</svg>
