<?xml version="1.0" encoding="UTF-8"?>
<svg id="Layer_1" xmlns="http://www.w3.org/2000/svg" version="1.1" viewBox="0 0 462 462">
  <!-- Generator: Adobe Illustrator 29.4.0, SVG Export Plug-In . SVG Version: 2.1.0 Build 152)  -->
  <defs>
    <style>
      .st0 {
        stroke: #d8a966;
      }

      .st0, .st1 {
        fill: #d8a966;
      }

      .st2 {
        fill: #1b2532;
      }

      .st3 {
        fill: none;
        stroke: #feeee0;
      }

      .st4 {
        fill: #feeee0;
      }
    </style>
  </defs>
  <rect class="st2" width="462" height="462"/>
  <line class="st3" x1="54.3" y1="321.8" x2="137.8" y2="325.7"/>
  <line class="st3" x1="137.6" y1="325.7" x2="210.2" y2="296.3"/>
  <line class="st3" x1="210.1" y1="296.4" x2="275.8" y2="223.8"/>
  <line class="st3" x1="330.1" y1="296.9" x2="275.8" y2="224.3"/>
  <line class="st3" x1="394.5" y1="381.7" x2="330.1" y2="297.5"/>
  <line class="st3" x1="275.8" y1="224.3" x2="242.9" y2="166.5"/>
  <line class="st3" x1="359.1" y1="178.7" x2="276.3" y2="224.4"/>
  <line class="st3" x1="386" y1="101.6" x2="359.3" y2="178.5"/>
  <line class="st3" x1="407.9" y1="81.1" x2="385.9" y2="101.7"/>
  <circle class="st1" cx="394.9" cy="381.4" r="4.8"/>
  <circle class="st1" cx="330.6" cy="296.9" r="4.8"/>
  <circle class="st1" cx="276.3" cy="224.3" r="4.8"/>
  <circle class="st1" cx="243.5" cy="166.5" r="4.8"/>
  <circle class="st1" cx="359.1" cy="178.6" r="4.8"/>
  <circle class="st1" cx="385.8" cy="101.6" r="4.8"/>
  <circle class="st1" cx="407.8" cy="80.9" r="4.8"/>
  <circle class="st1" cx="210.6" cy="296.9" r="4.8"/>
  <circle class="st1" cx="137.9" cy="326.3" r="4.8"/>
  <circle class="st1" cx="54.8" cy="321.7" r="4.8"/>
  <path class="st0" d="M246.3,156.9h-5.5l2.7-10.9,2.7,10.9h0Z"/>
  <path class="st0" d="M253,169.2v-5.5l10.9,2.7-10.9,2.7h0Z"/>
  <path class="st0" d="M240.8,176h5.5l-2.7,10.9-2.7-10.9h0Z"/>
  <path class="st0" d="M234,163.7v5.5l-10.9-2.7,10.9-2.7h0Z"/>
  <path class="st4" d="M262.3,153v-1.4h3.7c1.2,0,2.1-.2,3-.7.8-.5,1.5-1.1,1.9-2s.7-1.8.7-2.9-.2-2.1-.7-2.9-1.1-1.5-1.9-1.9-1.8-.7-3-.7h-3.7v-1.4h3.7c1.4,0,2.7.3,3.8.9,1.1.6,1.9,1.4,2.5,2.4s.9,2.2.9,3.6-.3,2.6-.9,3.6-1.4,1.8-2.5,2.4c-1.1.6-2.3.9-3.7.9h-3.8ZM261.3,153v-13.8h1.6v13.8h-1.6ZM279.7,153.2c-.9,0-1.8-.2-2.5-.7-.7-.4-1.3-1.1-1.7-1.8-.4-.8-.6-1.7-.6-2.7s.2-1.9.6-2.6c.4-.8,1-1.4,1.7-1.8.7-.4,1.6-.6,2.5-.6s1.7.2,2.4.6c.7.4,1.2,1,1.6,1.7s.6,1.6.6,2.5,0,.2,0,.4v.4h-8.1v-1.3h7.1l-.5.7c0-1.2-.3-2.1-.8-2.7-.5-.6-1.2-1-2.2-1s-1.8.3-2.4,1-.9,1.6-.9,2.7.3,2.1.9,2.8,1.4,1,2.4,1,1.2-.1,1.7-.4c.5-.3.8-.7,1-1.2h1.5c-.3.9-.9,1.6-1.6,2.1s-1.6.8-2.6.8h-.1ZM286.6,153v-9.8h1.4v2.3h0v7.5h-1.5.1ZM293.6,153v-6.4c0-.7-.2-1.3-.6-1.7s-.9-.6-1.7-.6-1.2.1-1.7.4c-.5.3-.9.7-1.2,1.2-.3.5-.4,1.1-.4,1.7l-.2-2.3c.3-.7.8-1.3,1.5-1.7s1.5-.6,2.3-.6,1.8.3,2.5.9c.6.6.9,1.3.9,2.3v6.8h-1.5.1ZM302.2,153.2c-.9,0-1.8-.2-2.5-.7-.7-.4-1.3-1.1-1.7-1.8-.4-.8-.6-1.7-.6-2.7s.2-1.9.6-2.6c.4-.8,1-1.4,1.7-1.8s1.6-.6,2.5-.6,1.7.2,2.4.6c.7.4,1.2,1,1.6,1.7s.6,1.6.6,2.5,0,.2,0,.4v.4h-8.1v-1.3h7.1l-.5.7c0-1.2-.3-2.1-.8-2.7-.5-.6-1.2-1-2.2-1s-1.8.3-2.4,1-.9,1.6-.9,2.7.3,2.1.9,2.8,1.4,1,2.4,1,1.2-.1,1.7-.4c.5-.3.8-.7,1-1.2h1.5c-.3.9-.9,1.6-1.6,2.1s-1.6.8-2.6.8h-.1ZM314,153.2c-.9,0-1.7-.2-2.3-.7-.6-.4-1.1-1.1-1.3-1.9h.2v2.4h-1.4v-13.8h1.5v6.3h-.2c.2-.8.7-1.4,1.3-1.8.7-.4,1.4-.7,2.3-.7s1.6.2,2.3.6c.7.4,1.2,1,1.5,1.8s.5,1.6.5,2.7-.2,1.9-.6,2.7-.9,1.4-1.6,1.8-1.4.6-2.3.6h.1ZM313.8,151.8c1,0,1.7-.3,2.3-1,.6-.7.8-1.6.8-2.8s-.3-2.1-.8-2.7c-.6-.7-1.3-1-2.3-1s-1.7.3-2.3,1c-.6.7-.8,1.6-.8,2.7s.3,2,.8,2.7c.6.7,1.3,1,2.3,1h0Z"/>
</svg>