<svg width="462" height="462" viewBox="0 0 462 462" fill="none" xmlns="http://www.w3.org/2000/svg">
<rect width="462" height="462" fill="#1B2532"/>
<line x1="63.3234" y1="195.558" x2="164.53" y2="204.476" stroke="#FEEEE0"/>
<line x1="192.898" y1="299.476" x2="164.008" y2="205.12" stroke="#FEEEE0"/>
<line x1="193.513" y1="298.849" x2="396.556" y2="356.526" stroke="#FEEEE0"/>
<line x1="368.768" y1="264.518" x2="396.897" y2="356.862" stroke="#FEEEE0"/>
<line x1="368.149" y1="265.143" x2="164.346" y2="205.454" stroke="#FEEEE0"/>
<line x1="164.079" y1="205.263" x2="108.57" y2="126.879" stroke="#FEEEE0"/>
<line x1="65.1563" y1="195.791" x2="108.554" y2="126.325" stroke="#FEEEE0"/>
<path d="M71.8128 196.459C71.8128 199.773 69.1265 202.459 65.8128 202.459C62.4991 202.459 59.8128 199.773 59.8128 196.459C59.8128 193.146 62.4991 190.459 65.8128 190.459C69.1265 190.459 71.8128 193.146 71.8128 196.459Z" fill="#D8A966"/>
<path d="M115.21 126.822C115.21 130.135 112.524 132.822 109.21 132.822C105.897 132.822 103.21 130.135 103.21 126.822C103.21 123.508 105.897 120.822 109.21 120.822C112.524 120.822 115.21 123.508 115.21 126.822Z" fill="#D8A966"/>
<path d="M170.719 205.206C170.719 208.52 168.033 211.206 164.719 211.206C161.405 211.206 158.719 208.52 158.719 205.206C158.719 201.892 161.405 199.206 164.719 199.206C168.033 199.206 170.719 201.892 170.719 205.206Z" fill="#D8A966"/>
<path d="M199.609 299.562C199.609 302.875 196.922 305.562 193.609 305.562C190.295 305.562 187.609 302.875 187.609 299.562C187.609 296.248 190.295 293.562 193.609 293.562C196.922 293.562 199.609 296.248 199.609 299.562Z" fill="#D8A966"/>
<path d="M374.522 264.895C374.522 268.209 371.835 270.895 368.522 270.895C365.208 270.895 362.522 268.209 362.522 264.895C362.522 261.582 365.208 258.895 368.522 258.895C371.835 258.895 374.522 261.582 374.522 264.895Z" fill="#D8A966"/>
<path d="M402.652 357.239C402.652 360.553 399.965 363.239 396.652 363.239C393.338 363.239 390.652 360.553 390.652 357.239C390.652 353.926 393.338 351.239 396.652 351.239C399.965 351.239 402.652 353.926 402.652 357.239Z" fill="#D8A966"/>
<path d="M112.628 114.922H105.792L109.21 101.283L112.628 114.922Z" fill="#D8A966" stroke="#D8A966"/>
<path d="M121.11 130.008V123.172L134.749 126.59L121.11 130.008Z" fill="#D8A966" stroke="#D8A966"/>
<path d="M105.56 138.923H112.396L108.978 152.562L105.56 138.923Z" fill="#D8A966" stroke="#D8A966"/>
<path d="M97.3108 123.172V130.008L83.6711 126.59L97.3108 123.172Z" fill="#D8A966" stroke="#D8A966"/>
<path d="M159.678 133.023L153.006 115.743H155.118L161.31 132.159H160.59L166.758 115.743H168.75L162.078 133.023H159.678ZM174.948 133.263C173.78 133.263 172.748 132.991 171.852 132.447C170.956 131.887 170.252 131.127 169.74 130.167C169.228 129.207 168.972 128.103 168.972 126.855C168.972 125.607 169.22 124.511 169.716 123.567C170.228 122.607 170.94 121.863 171.852 121.335C172.764 120.807 173.812 120.543 174.996 120.543C176.132 120.543 177.116 120.791 177.948 121.287C178.796 121.783 179.444 122.479 179.892 123.375C180.356 124.271 180.588 125.327 180.588 126.543C180.588 126.703 180.58 126.855 180.564 126.999C180.564 127.143 180.548 127.303 180.516 127.479H170.412V125.871H179.34L178.716 126.759C178.716 125.287 178.388 124.159 177.732 123.375C177.092 122.575 176.18 122.175 174.996 122.175C173.78 122.175 172.796 122.599 172.044 123.447C171.308 124.279 170.94 125.407 170.94 126.831C170.94 128.287 171.308 129.455 172.044 130.335C172.796 131.199 173.796 131.631 175.044 131.631C175.828 131.631 176.516 131.463 177.108 131.127C177.7 130.775 178.132 130.279 178.404 129.639H180.228C179.828 130.759 179.156 131.647 178.212 132.303C177.284 132.943 176.196 133.263 174.948 133.263ZM188.471 138.183C187.015 138.183 185.799 137.839 184.823 137.151C183.863 136.479 183.279 135.583 183.071 134.463H184.895C185.071 135.103 185.463 135.607 186.071 135.975C186.695 136.359 187.535 136.551 188.591 136.551C189.839 136.551 190.783 136.207 191.423 135.519C192.063 134.847 192.383 133.855 192.383 132.543V129.927L192.623 129.975C192.351 130.903 191.807 131.647 190.991 132.207C190.175 132.751 189.207 133.023 188.087 133.023C187.015 133.023 186.071 132.767 185.255 132.255C184.439 131.727 183.807 130.999 183.359 130.071C182.911 129.143 182.687 128.063 182.687 126.831C182.687 125.583 182.919 124.487 183.383 123.543C183.847 122.599 184.495 121.871 185.327 121.359C186.175 120.831 187.159 120.567 188.279 120.567C189.431 120.567 190.391 120.847 191.159 121.407C191.943 121.967 192.463 122.767 192.719 123.807L192.503 123.831V120.783H194.303V132.543C194.303 134.287 193.783 135.663 192.743 136.671C191.703 137.679 190.279 138.183 188.471 138.183ZM188.567 131.367C189.767 131.367 190.719 130.951 191.423 130.119C192.127 129.287 192.479 128.159 192.479 126.735C192.479 125.343 192.127 124.247 191.423 123.447C190.719 122.631 189.767 122.223 188.567 122.223C187.351 122.223 186.391 122.631 185.687 123.447C184.999 124.263 184.655 125.383 184.655 126.807C184.655 128.199 185.007 129.311 185.711 130.143C186.415 130.959 187.367 131.367 188.567 131.367ZM205.786 133.023C205.722 132.751 205.674 132.439 205.642 132.087C205.626 131.735 205.618 131.287 205.618 130.743H205.498V124.887C205.498 123.959 205.282 123.279 204.85 122.847C204.434 122.399 203.754 122.175 202.81 122.175C201.882 122.175 201.138 122.367 200.578 122.751C200.034 123.119 199.73 123.647 199.666 124.335H197.818C197.898 123.151 198.394 122.223 199.306 121.551C200.218 120.879 201.41 120.543 202.882 120.543C204.402 120.543 205.53 120.903 206.266 121.623C207.002 122.343 207.37 123.423 207.37 124.863V130.743C207.37 131.095 207.394 131.463 207.442 131.847C207.49 132.215 207.554 132.607 207.634 133.023H205.786ZM201.586 133.263C200.322 133.263 199.314 132.959 198.562 132.351C197.826 131.727 197.458 130.879 197.458 129.807C197.458 128.735 197.826 127.903 198.562 127.311C199.298 126.719 200.37 126.303 201.778 126.063L206.05 125.343V126.927L202.066 127.551C201.17 127.695 200.49 127.935 200.026 128.271C199.562 128.607 199.33 129.095 199.33 129.735C199.33 130.359 199.538 130.831 199.954 131.151C200.386 131.471 201.018 131.631 201.85 131.631C202.922 131.631 203.794 131.391 204.466 130.911C205.154 130.415 205.498 129.775 205.498 128.991L205.81 130.695C205.554 131.511 205.05 132.143 204.298 132.591C203.562 133.039 202.658 133.263 201.586 133.263Z" fill="#FEEEE0"/>
</svg>
