<svg width="462" height="462" viewBox="0 0 462 462" fill="none" xmlns="http://www.w3.org/2000/svg">
<rect width="462" height="462" fill="#1B2532"/>
<line y1="-0.5" x2="56.3488" y2="-0.5" transform="matrix(0.98988 0.141906 -0.141824 0.989892 75.2874 100.23)" stroke="#FEEEE0"/>
<line y1="-0.5" x2="37.4603" y2="-0.5" transform="matrix(-0.693535 -0.720423 0.720219 -0.693747 157.045 135.213)" stroke="#FEEEE0"/>
<line y1="-0.5" x2="47.0075" y2="-0.5" transform="matrix(-0.758159 -0.65207 0.65185 -0.758348 192.685 165.865)" stroke="#FEEEE0"/>
<line y1="-0.5" x2="37.4239" y2="-0.5" transform="matrix(0.0759761 -0.99711 0.997106 0.0760203 189.842 203.181)" stroke="#FEEEE0"/>
<line y1="-0.5" x2="84.5814" y2="-0.5" transform="matrix(-0.975367 -0.22059 0.220467 -0.975394 275.183 184.523)" stroke="#FEEEE0"/>
<line y1="-0.5" x2="43.9122" y2="-0.5" transform="matrix(0.511162 -0.859485 0.859352 0.511384 252.737 223.598)" stroke="#FEEEE0"/>
<path d="M252.661 225.072L189.683 203.427" stroke="#FEEEE0"/>
<line y1="-0.5" x2="50.3991" y2="-0.5" transform="matrix(0.510204 -0.860053 0.859921 0.510426 162.732 246.527)" stroke="#FEEEE0"/>
<line y1="-0.5" x2="61.0947" y2="-0.5" transform="matrix(-0.420885 -0.907114 0.90702 -0.421088 188.446 303.247)" stroke="#FEEEE0"/>
<line y1="-0.5" x2="78.268" y2="-0.5" transform="matrix(-0.657308 -0.753622 0.753431 -0.657528 239.893 361.541)" stroke="#FEEEE0"/>
<line y1="-0.5" x2="83.0705" y2="-0.5" transform="matrix(-0.773925 -0.633277 0.633054 -0.774108 252.737 355.853)" stroke="#FEEEE0"/>
<line y1="-0.5" x2="86.3556" y2="-0.5" transform="matrix(-0.783647 -0.621206 0.620982 -0.783825 320.409 278.499)" stroke="#FEEEE0"/>
<line y1="-0.5" x2="41.0514" y2="-0.5" transform="matrix(0.348711 -0.93723 0.937163 0.348891 320.409 277.386)" stroke="#FEEEE0"/>
<line y1="-0.5" x2="92.4361" y2="-0.5" transform="matrix(0.961607 0.274431 -0.274281 0.961649 275.183 185.856)" stroke="#FEEEE0"/>
<line y1="-0.5" x2="64.8913" y2="-0.5" transform="matrix(-0.904396 -0.426695 0.426489 -0.904493 422.758 238.912)" stroke="#FEEEE0"/>
<line x1="334.724" y1="238.412" x2="422.757" y2="238.412" stroke="#FEEEE0"/>
<line y1="-0.5" x2="31.9117" y2="-0.5" transform="matrix(-0.562196 -0.827004 0.826851 -0.562422 337.567 304.89)" stroke="#FEEEE0"/>
<line y1="-0.5" x2="55.7792" y2="-0.5" transform="matrix(-0.564257 -0.825599 0.825445 -0.564483 369.041 350.941)" stroke="#FEEEE0"/>
<line y1="-0.5" x2="57.8126" y2="-0.5" transform="matrix(-0.699467 -0.714665 0.71446 -0.699677 378.005 345.253)" stroke="#FEEEE0"/>
<ellipse cx="192.8" cy="165.98" rx="2.95776" ry="2.95863" fill="#D8A966"/>
<ellipse cx="189.956" cy="203.296" rx="2.95776" ry="2.95863" fill="#D8A966"/>
<ellipse cx="162.847" cy="247.941" rx="2.95776" ry="2.95863" fill="#D8A966"/>
<ellipse cx="189.956" cy="304.387" rx="2.95776" ry="2.95862" fill="#D8A966"/>
<path d="M242.965 361.656C242.965 363.29 241.641 364.615 240.007 364.615C238.373 364.615 237.049 363.29 237.049 361.656C237.049 360.022 238.373 358.697 240.007 358.697C241.641 358.697 242.965 360.022 242.965 361.656Z" fill="#D8A966"/>
<path d="M255.809 355.968C255.809 357.602 254.485 358.926 252.851 358.926C251.218 358.926 249.894 357.602 249.894 355.968C249.894 354.334 251.218 353.009 252.851 353.009C254.485 353.009 255.809 354.334 255.809 355.968Z" fill="#D8A966"/>
<path d="M366.427 211.338C366.427 212.972 365.103 214.296 363.469 214.296C361.836 214.296 360.512 212.972 360.512 211.338C360.512 209.704 361.836 208.379 363.469 208.379C365.103 208.379 366.427 209.704 366.427 211.338Z" fill="#D8A966"/>
<path d="M425.83 239.026C425.83 240.66 424.505 241.985 422.872 241.985C421.238 241.985 419.914 240.66 419.914 239.026C419.914 237.392 421.238 236.068 422.872 236.068C424.505 236.068 425.83 237.392 425.83 239.026Z" fill="#D8A966"/>
<path d="M337.796 239.026C337.796 240.66 336.472 241.985 334.839 241.985C333.205 241.985 331.881 240.66 331.881 239.026C331.881 237.392 333.205 236.068 334.839 236.068C336.472 236.068 337.796 237.392 337.796 239.026Z" fill="#D8A966"/>
<path d="M323.481 278.613C323.481 280.247 322.157 281.572 320.524 281.572C318.89 281.572 317.566 280.247 317.566 278.613C317.566 276.979 318.89 275.654 320.524 275.654C322.157 275.654 323.481 276.979 323.481 278.613Z" fill="#D8A966"/>
<path d="M340.64 305.004C340.64 306.638 339.315 307.963 337.682 307.963C336.048 307.963 334.724 306.638 334.724 305.004C334.724 303.37 336.048 302.046 337.682 302.046C339.315 302.046 340.64 303.37 340.64 305.004Z" fill="#D8A966"/>
<path d="M381.078 345.367C381.078 347.001 379.754 348.326 378.12 348.326C376.486 348.326 375.162 347.001 375.162 345.367C375.162 343.733 376.486 342.408 378.12 342.408C379.754 342.408 381.078 343.733 381.078 345.367Z" fill="#D8A966"/>
<path d="M372.114 351.055C372.114 352.689 370.789 354.014 369.156 354.014C367.522 354.014 366.198 352.689 366.198 351.055C366.198 349.421 367.522 348.097 369.156 348.097C370.789 348.097 372.114 349.421 372.114 351.055Z" fill="#D8A966"/>
<ellipse cx="275.297" cy="185.97" rx="2.95776" ry="2.95863" fill="#D8A966"/>
<ellipse cx="252.851" cy="224.952" rx="2.95776" ry="2.95863" fill="#D8A966"/>
<ellipse cx="157.16" cy="135.328" rx="2.95776" ry="2.95863" fill="#D8A966"/>
<ellipse cx="131.18" cy="108.34" rx="2.95776" ry="2.95863" fill="#D8A966"/>
<ellipse cx="72.5586" cy="100.344" rx="2.95776" ry="2.95863" fill="#D8A966"/>
<path d="M158.407 129.207H155.685L157.046 123.775L158.407 129.207Z" fill="#D8A966" stroke="#D8A966"/>
<path d="M163.28 136.574V133.853L168.707 135.213L163.28 136.574Z" fill="#D8A966" stroke="#D8A966"/>
<path d="M155.685 141.448H158.406L157.046 146.88L155.685 141.448Z" fill="#D8A966" stroke="#D8A966"/>
<path d="M151.041 133.967V136.688L145.614 135.328L151.041 133.967Z" fill="#D8A966" stroke="#D8A966"/>
<path d="M182.226 134.299L188.898 117.019H190.626L184.122 134.299H182.226ZM195.954 134.299L189.45 117.019H191.298L197.97 134.299H195.954ZM185.538 127.315H194.562V129.043H185.538V127.315ZM200.863 134.299V117.019H202.783V134.299H200.863ZM206.748 134.299V122.059H208.668V134.299H206.748ZM206.604 119.275V117.019H208.812V119.275H206.604ZM217.675 134.539C216.475 134.539 215.419 134.259 214.507 133.699C213.595 133.139 212.883 132.379 212.371 131.419C211.875 130.443 211.627 129.347 211.627 128.131C211.627 126.899 211.883 125.811 212.395 124.867C212.907 123.923 213.611 123.179 214.507 122.635C215.419 122.091 216.475 121.819 217.675 121.819C218.891 121.819 219.947 122.091 220.843 122.635C221.755 123.179 222.459 123.923 222.955 124.867C223.467 125.811 223.723 126.899 223.723 128.131C223.723 129.347 223.467 130.443 222.955 131.419C222.459 132.379 221.755 133.139 220.843 133.699C219.947 134.259 218.891 134.539 217.675 134.539ZM217.675 132.907C218.507 132.907 219.227 132.707 219.835 132.307C220.443 131.891 220.915 131.323 221.251 130.603C221.587 129.883 221.755 129.051 221.755 128.107C221.755 126.699 221.379 125.571 220.627 124.723C219.891 123.875 218.907 123.451 217.675 123.451C216.459 123.451 215.475 123.875 214.723 124.723C213.971 125.571 213.595 126.699 213.595 128.107C213.595 129.051 213.763 129.883 214.099 130.603C214.435 131.323 214.907 131.891 215.515 132.307C216.139 132.707 216.859 132.907 217.675 132.907ZM231.501 134.515C230.141 134.515 229.149 134.211 228.525 133.603C227.917 132.979 227.613 132.083 227.613 130.915V119.203L229.533 118.483V130.891C229.533 131.579 229.709 132.083 230.061 132.403C230.413 132.723 230.989 132.883 231.789 132.883C232.109 132.883 232.381 132.867 232.605 132.835C232.845 132.787 233.037 132.731 233.181 132.667V134.299C233.021 134.363 232.789 134.411 232.485 134.443C232.197 134.491 231.869 134.515 231.501 134.515ZM225.093 123.691V122.059H233.181V123.691H225.093ZM235.772 134.299V117.019H237.692V134.299H235.772ZM244.532 134.299V126.283C244.532 125.355 244.3 124.659 243.836 124.195C243.372 123.731 242.684 123.499 241.772 123.499C240.972 123.499 240.26 123.675 239.636 124.027C239.028 124.379 238.548 124.867 238.196 125.491C237.86 126.115 237.692 126.843 237.692 127.675L237.38 124.771C237.796 123.859 238.428 123.139 239.276 122.611C240.14 122.083 241.116 121.819 242.204 121.819C243.484 121.819 244.508 122.187 245.276 122.923C246.06 123.643 246.452 124.595 246.452 125.779V134.299H244.532Z" fill="#FEEEE0"/>
</svg>
