<svg width="305" height="228" viewBox="0 0 305 228" fill="none" xmlns="http://www.w3.org/2000/svg">
<line y1="-0.5" x2="48.1138" y2="-0.5" transform="matrix(0.989967 0.141296 -0.142436 0.989804 4.85645 2.41805)" stroke="#FEEEE0"/>
<line y1="-0.5" x2="31.9158" y2="-0.5" transform="matrix(-0.695116 -0.718898 0.721741 -0.692164 74.6729 32.1606)" stroke="#FEEEE0"/>
<line y1="-0.5" x2="40.0665" y2="-0.5" transform="matrix(-0.759573 -0.650422 0.653496 -0.75693 105.106 58.2206)" stroke="#FEEEE0"/>
<line y1="-0.5" x2="31.8181" y2="-0.5" transform="matrix(0.0763088 -0.997084 0.997131 0.0756888 102.678 89.946)" stroke="#FEEEE0"/>
<line y1="-0.5" x2="72.2115" y2="-0.5" transform="matrix(-0.975574 -0.219669 0.22139 -0.975185 175.554 74.0833)" stroke="#FEEEE0"/>
<line y1="-0.5" x2="37.3767" y2="-0.5" transform="matrix(0.512822 -0.858495 0.860338 0.509725 156.386 107.304)" stroke="#FEEEE0"/>
<path d="M156.321 108.557L102.542 90.1552" stroke="#FEEEE0"/>
<line y1="-0.5" x2="42.8979" y2="-0.5" transform="matrix(0.511864 -0.859066 0.860904 0.508768 79.5283 126.798)" stroke="#FEEEE0"/>
<line y1="-0.5" x2="51.9826" y2="-0.5" transform="matrix(-0.422409 -0.906406 0.907724 -0.419567 101.486 175.02)" stroke="#FEEEE0"/>
<line y1="-0.5" x2="66.6693" y2="-0.5" transform="matrix(-0.658948 -0.752189 0.75486 -0.655886 145.418 224.582)" stroke="#FEEEE0"/>
<line y1="-0.5" x2="70.812" y2="-0.5" transform="matrix(-0.775287 -0.631609 0.634721 -0.772742 156.386 219.746)" stroke="#FEEEE0"/>
<line y1="-0.5" x2="73.6172" y2="-0.5" transform="matrix(-0.784974 -0.619529 0.622658 -0.782494 214.174 153.98)" stroke="#FEEEE0"/>
<line y1="-0.5" x2="34.9201" y2="-0.5" transform="matrix(0.350059 -0.936728 0.937663 0.347546 214.174 153.035)" stroke="#FEEEE0"/>
<line y1="-0.5" x2="78.9082" y2="-0.5" transform="matrix(0.961924 0.273317 -0.275398 0.96133 175.554 75.2163)" stroke="#FEEEE0"/>
<line y1="-0.5" x2="55.3686" y2="-0.5" transform="matrix(-0.905117 -0.425162 0.428025 -0.903767 301.572 120.324)" stroke="#FEEEE0"/>
<line x1="226.397" y1="119.824" x2="301.572" y2="119.824" stroke="#FEEEE0"/>
<line y1="-0.5" x2="27.1688" y2="-0.5" transform="matrix(-0.563886 -0.825853 0.827998 -0.560732 228.826 176.417)" stroke="#FEEEE0"/>
<line y1="-0.5" x2="47.4893" y2="-0.5" transform="matrix(-0.565948 -0.824441 0.826598 -0.562793 255.702 215.57)" stroke="#FEEEE0"/>
<line y1="-0.5" x2="49.2576" y2="-0.5" transform="matrix(-0.701035 -0.713127 0.715995 -0.698105 263.357 210.734)" stroke="#FEEEE0"/>
<ellipse cx="105.203" cy="58.318" rx="2.52573" ry="2.51539" fill="#D8A966"/>
<ellipse cx="102.776" cy="90.0433" rx="2.52573" ry="2.51539" fill="#D8A966"/>
<ellipse cx="79.6263" cy="128" rx="2.52573" ry="2.51539" fill="#D8A966"/>
<ellipse cx="102.776" cy="175.99" rx="2.52573" ry="2.51538" fill="#D8A966"/>
<path d="M148.041 224.679C148.041 226.069 146.91 227.195 145.515 227.195C144.12 227.195 142.989 226.069 142.989 224.679C142.989 223.29 144.12 222.164 145.515 222.164C146.91 222.164 148.041 223.29 148.041 224.679Z" fill="#D8A966"/>
<path d="M159.009 219.843C159.009 221.232 157.879 222.359 156.484 222.359C155.089 222.359 153.958 221.232 153.958 219.843C153.958 218.454 155.089 217.328 156.484 217.328C157.879 217.328 159.009 218.454 159.009 219.843Z" fill="#D8A966"/>
<path d="M253.469 96.8806C253.469 98.2698 252.339 99.396 250.944 99.396C249.549 99.396 248.418 98.2698 248.418 96.8806C248.418 95.4914 249.549 94.3652 250.944 94.3652C252.339 94.3652 253.469 95.4914 253.469 96.8806Z" fill="#D8A966"/>
<path d="M304.195 120.421C304.195 121.81 303.064 122.937 301.669 122.937C300.274 122.937 299.144 121.81 299.144 120.421C299.144 119.032 300.274 117.906 301.669 117.906C303.064 117.906 304.195 119.032 304.195 120.421Z" fill="#D8A966"/>
<path d="M229.021 120.421C229.021 121.81 227.89 122.937 226.495 122.937C225.101 122.937 223.97 121.81 223.97 120.421C223.97 119.032 225.101 117.906 226.495 117.906C227.89 117.906 229.021 119.032 229.021 120.421Z" fill="#D8A966"/>
<path d="M216.797 154.077C216.797 155.467 215.666 156.593 214.271 156.593C212.876 156.593 211.745 155.467 211.745 154.077C211.745 152.688 212.876 151.562 214.271 151.562C215.666 151.562 216.797 152.688 216.797 154.077Z" fill="#D8A966"/>
<path d="M231.449 176.515C231.449 177.904 230.318 179.03 228.923 179.03C227.528 179.03 226.397 177.904 226.397 176.515C226.397 175.126 227.528 173.999 228.923 173.999C230.318 173.999 231.449 175.126 231.449 176.515Z" fill="#D8A966"/>
<path d="M265.98 210.831C265.98 212.22 264.849 213.346 263.454 213.346C262.06 213.346 260.929 212.22 260.929 210.831C260.929 209.442 262.06 208.315 263.454 208.315C264.849 208.315 265.98 209.442 265.98 210.831Z" fill="#D8A966"/>
<path d="M258.326 215.667C258.326 217.056 257.195 218.182 255.8 218.182C254.405 218.182 253.274 217.056 253.274 215.667C253.274 214.278 254.405 213.151 255.8 213.151C257.195 213.151 258.326 214.278 258.326 215.667Z" fill="#D8A966"/>
<ellipse cx="175.651" cy="75.3136" rx="2.52573" ry="2.51539" fill="#D8A966"/>
<ellipse cx="156.484" cy="108.455" rx="2.52573" ry="2.51539" fill="#D8A966"/>
<ellipse cx="74.7699" cy="32.2579" rx="2.52573" ry="2.51539" fill="#D8A966"/>
<ellipse cx="52.5843" cy="9.31367" rx="2.52573" ry="2.51539" fill="#D8A966"/>
<ellipse cx="2.52573" cy="2.51539" rx="2.52573" ry="2.51539" fill="#D8A966"/>
<path d="M75.7402 26.9785H73.6045L74.6719 22.7363L75.7402 26.9785Z" fill="#D8A966" stroke="#D8A966"/>
<path d="M80.0684 33.2218V31.0987L84.3232 32.1602L80.0684 33.2218Z" fill="#D8A966" stroke="#D8A966"/>
<path d="M73.6045 37.5373H75.7402L74.6729 41.7794L73.6045 37.5373Z" fill="#D8A966" stroke="#D8A966"/>
<path d="M69.4717 31.1967V33.3197L65.2168 32.2582L69.4717 31.1967Z" fill="#D8A966" stroke="#D8A966"/>
<path d="M96.2995 34.8291L102.972 17.5491H104.7L98.1955 34.8291H96.2995ZM110.028 34.8291L103.524 17.5491H105.372L112.044 34.8291H110.028ZM99.6115 27.8451H108.636V29.5731H99.6115V27.8451ZM114.936 34.8291V17.5491H116.856V34.8291H114.936ZM120.822 34.8291V22.5891H122.742V34.8291H120.822ZM120.678 19.8051V17.5491H122.886V19.8051H120.678ZM131.749 35.0691C130.549 35.0691 129.493 34.7891 128.581 34.2291C127.669 33.6691 126.957 32.9091 126.445 31.9491C125.949 30.9731 125.701 29.8771 125.701 28.6611C125.701 27.4291 125.957 26.3411 126.469 25.3971C126.981 24.4531 127.685 23.7091 128.581 23.1651C129.493 22.6211 130.549 22.3491 131.749 22.3491C132.965 22.3491 134.021 22.6211 134.917 23.1651C135.829 23.7091 136.533 24.4531 137.029 25.3971C137.541 26.3411 137.797 27.4291 137.797 28.6611C137.797 29.8771 137.541 30.9731 137.029 31.9491C136.533 32.9091 135.829 33.6691 134.917 34.2291C134.021 34.7891 132.965 35.0691 131.749 35.0691ZM131.749 33.4371C132.581 33.4371 133.301 33.2371 133.909 32.8371C134.517 32.4211 134.989 31.8531 135.325 31.1331C135.661 30.4131 135.829 29.5811 135.829 28.6371C135.829 27.2291 135.453 26.1011 134.701 25.2531C133.965 24.4051 132.981 23.9811 131.749 23.9811C130.533 23.9811 129.549 24.4051 128.797 25.2531C128.045 26.1011 127.669 27.2291 127.669 28.6371C127.669 29.5811 127.837 30.4131 128.173 31.1331C128.509 31.8531 128.981 32.4211 129.589 32.8371C130.213 33.2371 130.933 33.4371 131.749 33.4371ZM145.575 35.0451C144.215 35.0451 143.223 34.7411 142.599 34.1331C141.991 33.5091 141.687 32.6131 141.687 31.4451V19.7331L143.607 19.0131V31.4211C143.607 32.1091 143.783 32.6131 144.135 32.9331C144.487 33.2531 145.063 33.4131 145.863 33.4131C146.183 33.4131 146.455 33.3971 146.679 33.3651C146.919 33.3171 147.111 33.2611 147.255 33.1971V34.8291C147.095 34.8931 146.863 34.9411 146.559 34.9731C146.271 35.0211 145.943 35.0451 145.575 35.0451ZM139.167 24.2211V22.5891H147.255V24.2211H139.167ZM149.846 34.8291V17.5491H151.766V34.8291H149.846ZM158.606 34.8291V26.8131C158.606 25.8851 158.374 25.1891 157.91 24.7251C157.446 24.2611 156.758 24.0291 155.846 24.0291C155.046 24.0291 154.334 24.2051 153.71 24.5571C153.102 24.9091 152.622 25.3971 152.27 26.0211C151.934 26.6451 151.766 27.3731 151.766 28.2051L151.454 25.3011C151.87 24.3891 152.502 23.6691 153.35 23.1411C154.214 22.6131 155.19 22.3491 156.278 22.3491C157.558 22.3491 158.582 22.7171 159.35 23.4531C160.134 24.1731 160.526 25.1251 160.526 26.3091V34.8291H158.606Z" fill="#FEEEE0"/>
</svg>
