<svg width="32" height="32" viewBox="0 0 32 32" fill="none" xmlns="http://www.w3.org/2000/svg">
<g clip-path="url(#clip0_2676_6403)">
<path d="M18.9317 16.0262L31.3919 3.56562C32.2027 2.75511 32.2027 1.44463 31.3919 0.634125C30.5813 -0.176382 29.2709 -0.176382 28.4604 0.634125L15.9998 13.0947L3.53966 0.634125C2.72877 -0.176382 1.41867 -0.176382 0.608165 0.634125C-0.202722 1.44463 -0.202722 2.75511 0.608165 3.56562L13.0683 16.0262L0.608165 28.4867C-0.202722 29.2972 -0.202722 30.6077 0.608165 31.4182C1.01209 31.8225 1.54319 32.0256 2.07391 32.0256C2.60463 32.0256 3.13535 31.8225 3.53966 31.4182L15.9998 18.9577L28.4604 31.4182C28.8647 31.8225 29.3954 32.0256 29.9261 32.0256C30.4568 32.0256 30.9875 31.8225 31.3919 31.4182C32.2027 30.6077 32.2027 29.2972 31.3919 28.4867L18.9317 16.0262Z" fill="#FEEEE0"/>
</g>
<defs>
<clipPath id="clip0_2676_6403">
<rect width="32" height="32" fill="white"/>
</clipPath>
</defs>
</svg>
