<svg width="94" height="94" viewBox="0 0 94 94" fill="none" xmlns="http://www.w3.org/2000/svg">
<path d="M16.303 63.3031C14.9224 64.6838 14.9224 66.9163 16.303 68.2822C17.6837 69.6481 19.9162 69.6628 21.2821 68.2822L23.9993 65.565C29.0371 69.6335 35.0002 71.9981 41.1102 72.6591V77.55H27.0102C25.0568 77.55 23.4852 79.1216 23.4852 81.075C23.4852 83.0285 25.0568 84.6 27.0102 84.6H62.2602C64.2137 84.6 65.7852 83.0285 65.7852 81.075C65.7852 79.1216 64.2137 77.55 62.2602 77.55H48.1602V72.6591C55.3718 71.8806 62.3777 68.7375 67.9002 63.215C79.8999 51.2153 80.693 32.2244 70.2649 19.3141L72.9968 16.5969C74.3774 15.2163 74.3774 12.9838 72.9968 11.6178C71.6162 10.2519 69.3837 10.2372 68.003 11.6031L62.9359 16.685C61.5552 18.0656 61.5552 20.2981 62.9359 21.6641C73.0262 31.7544 73.0262 48.131 62.9359 58.2213C52.8455 68.3116 36.469 68.3116 26.3787 58.2213C24.998 56.8406 22.7655 56.8406 21.3996 58.2213L16.303 63.3031ZM44.6499 61.1C56.3265 61.1 65.7999 51.6266 65.7999 39.95C65.7999 28.2735 56.3265 18.8 44.6499 18.8C32.9734 18.8 23.4999 28.2735 23.4999 39.95C23.4999 51.6266 32.9734 61.1 44.6499 61.1Z" fill="#1B2532"/>
</svg>
