<svg width="87" height="87" viewBox="0 0 87 87" fill="none" xmlns="http://www.w3.org/2000/svg">
<path d="M62.4361 52.7574C60.1931 55.1227 58.1948 57.8686 57.2161 60.9H29.7975C28.8052 57.8686 26.8205 55.1227 24.5775 52.7574C20.1323 48.0811 17.4136 41.76 17.4136 34.8C17.4136 20.3906 29.1042 8.70001 43.5136 8.70001C57.923 8.70001 69.6 20.3906 69.6 34.8C69.6 41.76 66.8812 48.0811 62.4361 52.7574ZM30.45 69.6V67.425H56.55V69.6C56.55 75.6085 51.6834 80.475 45.675 80.475H41.325C35.3166 80.475 30.45 75.6085 30.45 69.6ZM32.625 33.7125C32.625 28.3022 37.0022 23.925 42.4125 23.925C44.2205 23.925 45.675 22.4705 45.675 20.6625C45.675 18.8545 44.2205 17.4 42.4125 17.4C33.3998 17.4 26.1 24.6999 26.1 33.7125C26.1 35.5205 27.5545 36.975 29.3625 36.975C31.1705 36.975 32.625 35.5205 32.625 33.7125ZM7.97953 12.3024L12.3295 14.4774C13.9472 15.2794 14.5997 17.2369 13.7841 18.8545C12.9684 20.4722 11.0245 21.1247 9.42047 20.3227L5.07047 18.1477C3.45281 17.332 2.80031 15.3745 3.60234 13.7705C4.40438 12.1664 6.37547 11.5003 7.97953 12.3024ZM81.9295 18.1341L77.5795 20.3091C75.9619 21.1111 74.0044 20.4586 73.2023 18.8545C72.4003 17.2505 73.0528 15.2794 74.6569 14.4774L79.0069 12.3024C80.6245 11.5003 82.582 12.1528 83.3841 13.7569C84.1861 15.3609 83.5336 17.332 81.9295 18.1341ZM3.2625 31.5375H7.6125C9.42047 31.5375 10.875 32.992 10.875 34.8C10.875 36.608 9.42047 38.0625 7.6125 38.0625H3.2625C1.45453 38.0625 0 36.608 0 34.8C0 32.992 1.45453 31.5375 3.2625 31.5375ZM79.3875 31.5375H83.7375C85.5455 31.5375 87 32.992 87 34.8C87 36.608 85.5455 38.0625 83.7375 38.0625H79.3875C77.5795 38.0625 76.125 36.608 76.125 34.8C76.125 32.992 77.5795 31.5375 79.3875 31.5375ZM12.3295 55.1227L7.97953 57.2977C6.36188 58.0997 4.40438 57.4472 3.60234 55.8431C2.80031 54.2391 3.45281 52.268 5.05688 51.466L9.40687 49.291C11.0245 48.4889 12.982 49.1414 13.7841 50.7455C14.5861 52.3495 13.9336 54.3206 12.3295 55.1227ZM77.5795 49.291L81.9295 51.466C83.5472 52.268 84.1997 54.2255 83.3841 55.8431C82.5684 57.4608 80.6245 58.1133 79.0069 57.2977L74.6569 55.1227C73.0392 54.3206 72.3867 52.3631 73.2023 50.7455C74.018 49.1278 75.9619 48.4753 77.5795 49.291Z" fill="#1B2532"/>
</svg>
