<svg width="89" height="91" viewBox="0 0 89 91" fill="none" xmlns="http://www.w3.org/2000/svg">
<path d="M16.8265 50.05H31.2194C36.1283 50.05 40.1194 54.1308 40.1194 59.15V73.8664C40.1194 77.4069 43.888 79.5823 46.8639 77.7623L59.1293 70.2406C61.1457 69.0036 62.3694 66.7855 62.3694 64.3825V50.8747C80.2946 40.0684 81.1985 23.9301 79.6549 13.1381C79.3907 11.3181 78 9.89623 76.22 9.62608C65.6652 8.0478 49.8816 8.97202 39.299 27.3H26.088C23.7379 27.3 21.5685 28.5512 20.3586 30.613L13.0161 43.1539C11.2361 46.1967 13.3638 50.05 16.8265 50.05ZM62.3694 20.475C66.0546 20.475 69.0444 23.532 69.0444 27.3C69.0444 31.068 66.0546 34.125 62.3694 34.125C58.6843 34.125 55.6944 31.068 55.6944 27.3C55.6944 23.532 58.6843 20.475 62.3694 20.475ZM30.1625 76.44C34.543 71.9611 34.543 64.7095 30.1625 60.2306C25.7821 55.7517 18.6899 55.7517 14.3094 60.2306C9.95677 64.6811 9.09458 73.3119 8.98333 78.2031C8.92771 80.2791 10.5408 81.9284 12.585 81.8858C17.3827 81.772 25.8099 80.8905 30.1625 76.44ZM24.5166 71.89C23.1121 73.3261 20.5533 73.7384 18.7733 73.838C17.6608 73.909 16.7847 72.9991 16.8404 71.8615C16.9377 70.0415 17.3549 67.4253 18.7455 65.9892C20.3308 64.3683 22.9174 64.3683 24.5027 65.9892C26.088 67.6101 26.088 70.2548 24.5027 71.8758L24.5166 71.89Z" fill="#1B2532"/>
</svg>
