<svg width="89" height="91" viewBox="0 0 89 91" fill="none" xmlns="http://www.w3.org/2000/svg">
<path d="M16.8266 50.05H31.2195C36.1284 50.05 40.1195 54.1308 40.1195 59.1501V73.8665C40.1195 77.4069 43.8881 79.5824 46.8641 77.7624L59.1294 70.2407C61.1458 69.0036 62.3695 66.7855 62.3695 64.3825V50.8747C80.2947 40.0685 81.1986 23.9302 79.655 13.1382C79.3908 11.3182 78.0001 9.8963 76.2201 9.62614C65.6653 8.04786 49.8817 8.97208 39.2991 27.3H26.0881C23.738 27.3 21.5686 28.5513 20.3587 30.613L13.0162 43.154C11.2362 46.1968 13.3639 50.05 16.8266 50.05ZM62.3695 20.475C66.0547 20.475 69.0445 23.5321 69.0445 27.3C69.0445 31.068 66.0547 34.125 62.3695 34.125C58.6844 34.125 55.6945 31.068 55.6945 27.3C55.6945 23.5321 58.6844 20.475 62.3695 20.475ZM30.1627 76.44C34.5431 71.9611 34.5431 64.7096 30.1627 60.2307C25.7822 55.7518 18.69 55.7518 14.3095 60.2307C9.95687 64.6811 9.09469 73.3119 8.98344 78.2032C8.92781 80.2791 10.5409 81.9285 12.5852 81.8858C17.3828 81.7721 25.81 80.8905 30.1627 76.44ZM24.5167 71.8901C23.1122 73.3261 20.5534 73.7385 18.7734 73.838C17.6609 73.9091 16.7848 72.9991 16.8405 71.8616C16.9378 70.0416 17.355 67.4254 18.7456 65.9893C20.3309 64.3683 22.9175 64.3683 24.5028 65.9893C26.0881 67.6102 26.0881 70.2549 24.5028 71.8758L24.5167 71.8901Z" fill="#FEEEE0"/>
</svg>
