<svg width="335" height="333" viewBox="0 0 335 333" fill="none" xmlns="http://www.w3.org/2000/svg">
<path d="M113.213 69.3945H109.783L111.498 62.5391L113.213 69.3945Z" fill="#9F7140" stroke="#9F7140"/>
<path d="M118.476 78.7344V75.2959L125.321 77.0146L118.476 78.7344Z" fill="#9F7140" stroke="#9F7140"/>
<path d="M109.155 84.0088H112.585L110.87 90.8643L109.155 84.0088Z" fill="#9F7140" stroke="#9F7140"/>
<path d="M103.892 74.6685V78.1069L97.0459 76.3882L103.892 74.6685Z" fill="#9F7140" stroke="#9F7140"/>
<path d="M7.50001 223.306C7.50001 225.377 5.82108 227.056 3.75001 227.056C1.67894 227.056 9.25562e-06 225.377 9.25562e-06 223.306C9.25562e-06 221.235 1.67894 219.556 3.75001 219.556C5.82108 219.556 7.50001 221.235 7.50001 223.306Z" fill="#9F7140"/>
<path d="M88.707 205.154C88.707 207.225 87.0281 208.904 84.957 208.904C82.886 208.904 81.207 207.225 81.207 205.154C81.207 203.083 82.886 201.404 84.957 201.404C87.0281 201.404 88.707 203.083 88.707 205.154Z" fill="#9F7140"/>
<path d="M202.873 186.046C202.873 188.117 201.194 189.796 199.123 189.796C197.052 189.796 195.373 188.117 195.373 186.046C195.373 183.975 197.052 182.296 199.123 182.296C201.194 182.296 202.873 183.975 202.873 186.046Z" fill="#9F7140"/>
<path d="M265.451 328.396C265.451 330.468 263.772 332.146 261.701 332.146C259.63 332.146 257.951 330.468 257.951 328.396C257.951 326.325 259.63 324.646 261.701 324.646C263.772 324.646 265.451 326.325 265.451 328.396Z" fill="#9F7140"/>
<path d="M88.707 114.394C88.707 116.465 87.0281 118.144 84.957 118.144C82.886 118.144 81.207 116.465 81.207 114.394C81.207 112.323 82.886 110.644 84.957 110.644C87.0281 110.644 88.707 112.323 88.707 114.394Z" fill="#9F7140"/>
<path d="M114.934 76.7016C114.934 78.7727 113.255 80.4516 111.184 80.4516C109.113 80.4516 107.434 78.7727 107.434 76.7016C107.434 74.6306 109.113 72.9516 111.184 72.9516C113.255 72.9516 114.934 74.6306 114.934 76.7016Z" fill="#9F7140"/>
<path d="M137.34 51.4292C137.34 53.5003 135.661 55.1792 133.59 55.1792C131.519 55.1792 129.84 53.5003 129.84 51.4292C129.84 49.3581 131.519 47.6792 133.59 47.6792C135.661 47.6792 137.34 49.3581 137.34 51.4292Z" fill="#9F7140"/>
<path d="M308.305 20.4243C308.305 22.4954 306.626 24.1743 304.555 24.1743C302.484 24.1743 300.805 22.4954 300.805 20.4243C300.805 18.3532 302.484 16.6743 304.555 16.6743C306.626 16.6743 308.305 18.3532 308.305 20.4243Z" fill="#9F7140"/>
<path d="M334.055 3.74999C334.055 5.82106 332.376 7.49999 330.305 7.49999C328.234 7.49999 326.555 5.82106 326.555 3.74999C326.555 1.67892 328.234 -1.14035e-05 330.305 -1.14035e-05C332.376 -1.14035e-05 334.055 1.67892 334.055 3.74999Z" fill="#9F7140"/>
<line x1="3.42201" y1="223.058" x2="84.6286" y2="204.861" stroke="#9F7140" stroke-width="3"/>
<line x1="199.373" y1="185.637" x2="85.2064" y2="204.962" stroke="#9F7140" stroke-width="3"/>
<line x1="200.499" y1="186.374" x2="262.23" y2="328.573" stroke="#9F7140" stroke-width="3"/>
<line x1="197.959" y1="185.104" x2="110.334" y2="77.3335" stroke="#9F7140" stroke-width="3"/>
<line x1="197.858" y1="186.812" x2="304.311" y2="19.6187" stroke="#9F7140" stroke-width="3"/>
<line x1="304.768" y1="20.0798" x2="330.186" y2="3.83616" stroke="#9F7140" stroke-width="3"/>
<line x1="84.7378" y1="113.548" x2="110.259" y2="76.1698" stroke="#9F7140" stroke-width="3"/>
<line x1="110.409" y1="75.984" x2="133.527" y2="51.5836" stroke="#9F7140" stroke-width="3"/>
</svg>
