<svg width="329" height="280" viewBox="0 0 329 280" fill="none" xmlns="http://www.w3.org/2000/svg">
<path d="M179.098 81.4512C179.098 83.5222 177.419 85.2012 175.348 85.2012C173.277 85.2012 171.598 83.5222 171.598 81.4512C171.598 79.3801 173.277 77.7012 175.348 77.7012C177.419 77.7012 179.098 79.3801 179.098 81.4512Z" fill="#9F7140"/>
<path d="M208.906 132.687C208.906 134.758 207.227 136.437 205.156 136.437C203.085 136.437 201.406 134.758 201.406 132.687C201.406 130.616 203.085 128.937 205.156 128.937C207.227 128.937 208.906 130.616 208.906 132.687Z" fill="#9F7140"/>
<path d="M283.967 91.9824C283.967 94.0535 282.288 95.7324 280.217 95.7324C278.146 95.7324 276.467 94.0535 276.467 91.9824C276.467 89.9113 278.146 88.2324 280.217 88.2324C282.288 88.2324 283.967 89.9113 283.967 91.9824Z" fill="#9F7140"/>
<path d="M308.029 22.9058C308.029 24.9768 306.35 26.6558 304.279 26.6558C302.208 26.6558 300.529 24.9768 300.529 22.9058C300.529 20.8347 302.208 19.1558 304.279 19.1558C306.35 19.1558 308.029 20.8347 308.029 22.9058Z" fill="#9F7140"/>
<path d="M328.141 3.74999C328.141 5.82106 326.462 7.49999 324.391 7.49999C322.32 7.49999 320.641 5.82106 320.641 3.74999C320.641 1.67892 322.32 -1.14035e-05 324.391 -1.14035e-05C326.462 -1.14035e-05 328.141 1.67892 328.141 3.74999Z" fill="#9F7140"/>
<path d="M257.75 199.361C257.75 201.432 256.071 203.111 254 203.111C251.929 203.111 250.25 201.432 250.25 199.361C250.25 197.29 251.929 195.611 254 195.611C256.071 195.611 257.75 197.29 257.75 199.361Z" fill="#9F7140"/>
<path d="M316.289 276.096C316.289 278.167 314.61 279.846 312.539 279.846C310.468 279.846 308.789 278.167 308.789 276.096C308.789 274.025 310.468 272.346 312.539 272.346C314.61 272.346 316.289 274.025 316.289 276.096Z" fill="#9F7140"/>
<path d="M150.031 199.361C150.031 201.432 148.352 203.111 146.281 203.111C144.21 203.111 142.531 201.432 142.531 199.361C142.531 197.29 144.21 195.611 146.281 195.611C148.352 195.611 150.031 197.29 150.031 199.361Z" fill="#9F7140"/>
<path d="M83.2539 226.059C83.2539 228.13 81.575 229.809 79.5039 229.809C77.4328 229.809 75.7539 228.13 75.7539 226.059C75.7539 223.988 77.4328 222.309 79.5039 222.309C81.575 222.309 83.2539 223.988 83.2539 226.059Z" fill="#9F7140"/>
<path d="M7.50001 222.309C7.50001 224.38 5.82108 226.059 3.75001 226.059C1.67894 226.059 9.25562e-06 224.38 9.25562e-06 222.309C9.25562e-06 220.238 1.67894 218.559 3.75001 218.559C5.82108 218.559 7.50001 220.238 7.50001 222.309Z" fill="#9F7140"/>
<line x1="3.81429" y1="222.658" x2="79.5687" y2="225.908" stroke="#9F7140" stroke-width="3"/>
<line x1="146.833" y1="200.756" x2="80.0572" y2="227.177" stroke="#9F7140" stroke-width="3"/>
<line x1="146.982" y1="198.376" x2="204.025" y2="132.867" stroke="#9F7140" stroke-width="3"/>
<line x1="175.11" y1="80.6814" x2="206.444" y2="133.082" stroke="#9F7140" stroke-width="3"/>
<line x1="252.787" y1="198.86" x2="203.944" y2="131.73" stroke="#9F7140" stroke-width="3"/>
<line x1="253.556" y1="198.449" x2="313.73" y2="277.062" stroke="#9F7140" stroke-width="3"/>
<line x1="280.926" y1="91.8906" x2="205.866" y2="132.169" stroke="#9F7140" stroke-width="3"/>
<line x1="280.363" y1="91.518" x2="302.853" y2="22.4414" stroke="#9F7140" stroke-width="3"/>
<line x1="303.233" y1="23.7626" x2="323.345" y2="4.18303" stroke="#9F7140" stroke-width="3"/>
<path d="M177.376 74.144H173.946L175.661 67.2886L177.376 74.144Z" fill="#9F7140" stroke="#9F7140"/>
<path d="M182.64 83.4839V80.0454L189.485 81.7642L182.64 83.4839Z" fill="#9F7140" stroke="#9F7140"/>
<path d="M173.319 88.7583H176.749L175.034 95.6138L173.319 88.7583Z" fill="#9F7140" stroke="#9F7140"/>
<path d="M168.056 79.418V82.8564L161.21 81.1377L168.056 79.418Z" fill="#9F7140" stroke="#9F7140"/>
</svg>
