<svg width="293" height="219" viewBox="0 0 293 219" fill="none" xmlns="http://www.w3.org/2000/svg">
<circle cx="41.2432" cy="16.2065" r="3.75" fill="#9F7140"/>
<path d="M43.2812 8.91699H39.8516L41.5664 2.06152L43.2812 8.91699Z" fill="#9F7140" stroke="#9F7140"/>
<path d="M48.5439 18.2568V14.8184L55.3896 16.5371L48.5439 18.2568Z" fill="#9F7140" stroke="#9F7140"/>
<path d="M39.2236 23.5312H42.6533L40.9385 30.3867L39.2236 23.5312Z" fill="#9F7140" stroke="#9F7140"/>
<path d="M33.96 14.1909V17.6294L27.1143 15.9106L33.96 14.1909Z" fill="#9F7140" stroke="#9F7140"/>
<path d="M7.50001 76.2432C7.50001 78.3142 5.82108 79.9932 3.75001 79.9932C1.67894 79.9932 9.25562e-06 78.3142 9.25562e-06 76.2432C9.25562e-06 74.1721 1.67894 72.4932 3.75001 72.4932C5.82108 72.4932 7.50001 74.1721 7.50001 76.2432Z" fill="#9F7140"/>
<path d="M91.9199 83.7432C91.9199 85.8142 90.241 87.4932 88.1699 87.4932C86.0989 87.4932 84.4199 85.8142 84.4199 83.7432C84.4199 81.6721 86.0989 79.9932 88.1699 79.9932C90.241 79.9932 91.9199 81.6721 91.9199 83.7432Z" fill="#9F7140"/>
<path d="M117.174 164.84C117.174 166.911 115.495 168.59 113.424 168.59C111.353 168.59 109.674 166.911 109.674 164.84C109.674 162.769 111.353 161.09 113.424 161.09C115.495 161.09 117.174 162.769 117.174 164.84Z" fill="#9F7140"/>
<path d="M267.975 134.82C267.975 136.891 266.296 138.57 264.225 138.57C262.154 138.57 260.475 136.891 260.475 134.82C260.475 132.749 262.154 131.07 264.225 131.07C266.296 131.07 267.975 132.749 267.975 134.82Z" fill="#9F7140"/>
<path d="M292.868 214.474C292.868 216.545 291.189 218.224 289.118 218.224C287.047 218.224 285.368 216.545 285.368 214.474C285.368 212.403 287.047 210.724 289.118 210.724C291.189 210.724 292.868 212.403 292.868 214.474Z" fill="#9F7140"/>
<line x1="2.47903" y1="75.4465" x2="40.2954" y2="15.113" stroke="#9F7140" stroke-width="3"/>
<line x1="3.88038" y1="76.6107" x2="88.3003" y2="83.9764" stroke="#9F7140" stroke-width="3"/>
<line x1="42.1635" y1="17.7696" x2="89.3949" y2="84.605" stroke="#9F7140" stroke-width="3"/>
<line x1="89.6082" y1="85.0448" x2="113.112" y2="164.414" stroke="#9F7140" stroke-width="3"/>
<line x1="88.5886" y1="83.4619" x2="264.644" y2="134.632" stroke="#9F7140" stroke-width="3"/>
<line x1="288.71" y1="214.917" x2="264.468" y2="136.515" stroke="#9F7140" stroke-width="3"/>
<line x1="288.7" y1="215.914" x2="113.006" y2="164.973" stroke="#9F7140" stroke-width="3"/>
</svg>
