<svg width="169" height="295" viewBox="0 0 169 295" fill="none" xmlns="http://www.w3.org/2000/svg">
<path d="M87.042 72.21H83.6123L85.3271 65.3545L87.042 72.21Z" fill="#1B2532" stroke="#1B2532"/>
<path d="M92.3057 81.5498V78.1113L99.1514 79.8301L92.3057 81.5498Z" fill="#1B2532" stroke="#1B2532"/>
<path d="M82.9834 86.8242H86.4131L84.6982 93.6797L82.9834 86.8242Z" fill="#1B2532" stroke="#1B2532"/>
<path d="M77.7217 77.4839V80.9224L70.876 79.2036L77.7217 77.4839Z" fill="#1B2532" stroke="#1B2532"/>
<path d="M88.7617 79.5171C88.7617 81.5881 87.0828 83.2671 85.0117 83.2671C82.9407 83.2671 81.2617 81.5881 81.2617 79.5171C81.2617 77.446 82.9407 75.7671 85.0117 75.7671C87.0828 75.7671 88.7617 77.446 88.7617 79.5171Z" fill="#1B2532"/>
<path d="M122.438 35.019C122.438 37.0901 120.759 38.769 118.688 38.769C116.616 38.769 114.938 37.0901 114.938 35.019C114.938 32.948 116.616 31.269 118.688 31.269C120.759 31.269 122.438 32.948 122.438 35.019Z" fill="#1B2532"/>
<path d="M144.486 3.74999C144.486 5.82106 142.807 7.49999 140.736 7.49999C138.665 7.49999 136.986 5.82106 136.986 3.74999C136.986 1.67892 138.665 -1.14035e-05 140.736 -1.14035e-05C142.807 -1.14035e-05 144.486 1.67892 144.486 3.74999Z" fill="#1B2532"/>
<path d="M52.6836 104.372C52.6836 106.443 51.0047 108.122 48.9336 108.122C46.8625 108.122 45.1836 106.443 45.1836 104.372C45.1836 102.301 46.8625 100.622 48.9336 100.622C51.0047 100.622 52.6836 102.301 52.6836 104.372Z" fill="#1B2532"/>
<path d="M15 192.968C15 195.039 13.3211 196.718 11.25 196.718C9.17894 196.718 7.50001 195.039 7.50001 192.968C7.50001 190.897 9.17894 189.218 11.25 189.218C13.3211 189.218 15 190.897 15 192.968Z" fill="#1B2532"/>
<path d="M7.50001 243.479C7.50001 245.551 5.82108 247.229 3.75001 247.229C1.67894 247.229 9.25562e-06 245.551 9.25562e-06 243.479C9.25562e-06 241.408 1.67894 239.729 3.75001 239.729C5.82108 239.729 7.50001 241.408 7.50001 243.479Z" fill="#1B2532"/>
<path d="M15 290.784C15 292.855 13.3211 294.534 11.25 294.534C9.17894 294.534 7.50001 292.855 7.50001 290.784C7.50001 288.713 9.17894 287.034 11.25 287.034C13.3211 287.034 15 288.713 15 290.784Z" fill="#1B2532"/>
<path d="M42.9453 287.034C42.9453 289.105 41.2664 290.784 39.1953 290.784C37.1243 290.784 35.4453 289.105 35.4453 287.034C35.4453 284.963 37.1243 283.284 39.1953 283.284C41.2664 283.284 42.9453 284.963 42.9453 287.034Z" fill="#1B2532"/>
<path d="M126.188 183.062C126.188 185.134 124.509 186.812 122.438 186.812C120.366 186.812 118.688 185.134 118.688 183.062C118.688 180.991 120.366 179.312 122.438 179.312C124.509 179.312 126.188 180.991 126.188 183.062Z" fill="#1B2532"/>
<path d="M134.986 207.374C134.986 209.445 133.307 211.124 131.236 211.124C129.165 211.124 127.486 209.445 127.486 207.374C127.486 205.303 129.165 203.624 131.236 203.624C133.307 203.624 134.986 205.303 134.986 207.374Z" fill="#1B2532"/>
<path d="M168.041 211.124C168.041 213.195 166.362 214.874 164.291 214.874C162.22 214.874 160.541 213.195 160.541 211.124C160.541 209.053 162.22 207.374 164.291 207.374C166.362 207.374 168.041 209.053 168.041 211.124Z" fill="#1B2532"/>
<line x1="85.5105" y1="80.4643" x2="48.7722" y2="104.087" stroke="#1B2532" stroke-width="3"/>
<line x1="84.1404" y1="79.9036" x2="119.471" y2="34.1029" stroke="#1B2532" stroke-width="3"/>
<line x1="140.491" y1="4.60101" x2="119.923" y2="34.4555" stroke="#1B2532" stroke-width="3"/>
<line x1="86.1167" y1="78.7119" x2="122.075" y2="182.572" stroke="#1B2532" stroke-width="3"/>
<line x1="122.854" y1="183.766" x2="131.698" y2="207.658" stroke="#1B2532" stroke-width="3"/>
<line x1="164.113" y1="211.781" x2="131.058" y2="207.82" stroke="#1B2532" stroke-width="3"/>
<line x1="11.5019" y1="192.387" x2="48.7294" y2="103.791" stroke="#1B2532" stroke-width="3"/>
<line x1="11.2227" y1="193.184" x2="3.88187" y2="243.695" stroke="#1B2532" stroke-width="3"/>
<line x1="10.523" y1="290.983" x2="4.20264" y2="243.678" stroke="#1B2532" stroke-width="3"/>
<line x1="11.0642" y1="290.564" x2="39.0095" y2="287.075" stroke="#1B2532" stroke-width="3"/>
</svg>
