<svg width="362" height="276" viewBox="0 0 362 276" fill="none" xmlns="http://www.w3.org/2000/svg">
<line y1="-1.5" x2="57.3006" y2="-1.5" transform="matrix(0.989843 0.142162 -0.141568 0.989928 5.7832 5.61523)" stroke="#9F7140" stroke-width="3"/>
<line y1="-1.5" x2="38.1281" y2="-1.5" transform="matrix(-0.692873 -0.72106 0.719581 -0.694409 88.9199 41.2539)" stroke="#9F7140" stroke-width="3"/>
<line y1="-1.5" x2="47.8372" y2="-1.5" transform="matrix(-0.757565 -0.652759 0.65116 -0.758941 125.16 72.48)" stroke="#9F7140" stroke-width="3"/>
<line y1="-1.5" x2="38.1243" y2="-1.5" transform="matrix(0.0758371 -0.99712 0.997096 0.0761595 122.268 110.495)" stroke="#9F7140" stroke-width="3"/>
<line y1="-1.5" x2="86.0147" y2="-1.5" transform="matrix(-0.975279 -0.220977 0.220081 -0.975482 209.049 91.4873)" stroke="#9F7140" stroke-width="3"/>
<line y1="-1.5" x2="44.7131" y2="-1.5" transform="matrix(0.510467 -0.859897 0.858938 0.512079 186.223 131.293)" stroke="#9F7140" stroke-width="3"/>
<path d="M186.146 132.795L122.107 110.745" stroke="#9F7140" stroke-width="3"/>
<line y1="-1.5" x2="51.3183" y2="-1.5" transform="matrix(0.50951 -0.860465 0.859509 0.511121 94.7012 154.652)" stroke="#9F7140" stroke-width="3"/>
<line y1="-1.5" x2="62.2186" y2="-1.5" transform="matrix(-0.420248 -0.907409 0.906723 -0.421726 120.85 212.434)" stroke="#9F7140" stroke-width="3"/>
<line y1="-1.5" x2="79.6704" y2="-1.5" transform="matrix(-0.656621 -0.754221 0.752831 -0.658214 173.162 271.82)" stroke="#9F7140" stroke-width="3"/>
<line y1="-1.5" x2="84.533" y2="-1.5" transform="matrix(-0.773354 -0.633975 0.632356 -0.774678 186.223 266.026)" stroke="#9F7140" stroke-width="3"/>
<line y1="-1.5" x2="87.8735" y2="-1.5" transform="matrix(-0.78309 -0.621908 0.62028 -0.78438 255.035 187.223)" stroke="#9F7140" stroke-width="3"/>
<line y1="-1.5" x2="41.8108" y2="-1.5" transform="matrix(0.348148 -0.93744 0.936953 0.349455 255.035 186.09)" stroke="#9F7140" stroke-width="3"/>
<line x1="207.077" y1="92.6354" x2="297.639" y2="118.296" stroke="#9F7140" stroke-width="3"/>
<line x1="357.715" y1="146.917" x2="298.811" y2="120.052" stroke="#9F7140" stroke-width="3"/>
<line x1="269.612" y1="145.395" x2="358.357" y2="146.572" stroke="#9F7140" stroke-width="3"/>
<line y1="-1.5" x2="32.4905" y2="-1.5" transform="matrix(-0.561488 -0.827485 0.826369 -0.563129 272.484 214.108)" stroke="#9F7140" stroke-width="3"/>
<line y1="-1.5" x2="56.7905" y2="-1.5" transform="matrix(-0.563549 -0.826082 0.82496 -0.56519 304.488 261.021)" stroke="#9F7140" stroke-width="3"/>
<line y1="-1.5" x2="58.8423" y2="-1.5" transform="matrix(-0.698809 -0.715308 0.713816 -0.700334 313.604 255.227)" stroke="#9F7140" stroke-width="3"/>
<circle cx="123.674" cy="72.4624" r="3.75" fill="#9F7140"/>
<circle cx="120.783" cy="110.477" r="3.75" fill="#9F7140"/>
<circle cx="93.2168" cy="155.958" r="3.75" fill="#9F7140"/>
<circle cx="120.783" cy="213.461" r="3.75" fill="#9F7140"/>
<path d="M175.428 271.803C175.428 273.874 173.749 275.553 171.678 275.553C169.607 275.553 167.928 273.874 167.928 271.803C167.928 269.732 169.607 268.053 171.678 268.053C173.749 268.053 175.428 269.732 175.428 271.803Z" fill="#9F7140"/>
<path d="M188.488 266.008C188.488 268.079 186.809 269.758 184.738 269.758C182.667 269.758 180.988 268.079 180.988 266.008C180.988 263.937 182.667 262.258 184.738 262.258C186.809 262.258 188.488 263.937 188.488 266.008Z" fill="#9F7140"/>
<path d="M300.971 118.67C300.971 120.741 299.292 122.42 297.221 122.42C295.15 122.42 293.471 120.741 293.471 118.67C293.471 116.599 295.15 114.92 297.221 114.92C299.292 114.92 300.971 116.599 300.971 118.67Z" fill="#9F7140"/>
<path d="M361.373 146.877C361.373 148.948 359.694 150.627 357.623 150.627C355.552 150.627 353.873 148.948 353.873 146.877C353.873 144.806 355.552 143.127 357.623 143.127C359.694 143.127 361.373 144.806 361.373 146.877Z" fill="#9F7140"/>
<path d="M271.857 146.877C271.857 148.948 270.178 150.627 268.107 150.627C266.036 150.627 264.357 148.948 264.357 146.877C264.357 144.806 266.036 143.127 268.107 143.127C270.178 143.127 271.857 144.806 271.857 146.877Z" fill="#9F7140"/>
<path d="M257.301 187.205C257.301 189.276 255.622 190.955 253.551 190.955C251.48 190.955 249.801 189.276 249.801 187.205C249.801 185.134 251.48 183.455 253.551 183.455C255.622 183.455 257.301 185.134 257.301 187.205Z" fill="#9F7140"/>
<path d="M274.748 214.09C274.748 216.161 273.069 217.84 270.998 217.84C268.927 217.84 267.248 216.161 267.248 214.09C267.248 212.019 268.927 210.34 270.998 210.34C273.069 210.34 274.748 212.019 274.748 214.09Z" fill="#9F7140"/>
<path d="M315.867 255.209C315.867 257.28 314.188 258.959 312.117 258.959C310.046 258.959 308.367 257.28 308.367 255.209C308.367 253.138 310.046 251.459 312.117 251.459C314.188 251.459 315.867 253.138 315.867 255.209Z" fill="#9F7140"/>
<path d="M306.752 261.004C306.752 263.075 305.073 264.754 303.002 264.754C300.931 264.754 299.252 263.075 299.252 261.004C299.252 258.933 300.931 257.254 303.002 257.254C305.073 257.254 306.752 258.933 306.752 261.004Z" fill="#9F7140"/>
<circle cx="207.562" cy="92.8271" r="3.75" fill="#9F7140"/>
<circle cx="184.738" cy="132.539" r="3.75" fill="#9F7140"/>
<circle cx="86.6855" cy="41.2363" r="3.75" fill="#9F7140"/>
<circle cx="59.627" cy="12.8892" r="3.75" fill="#9F7140"/>
<circle cx="5.77148" cy="3.75" r="3.75" fill="#9F7140"/>
<path d="M88.7236 33.9468H85.2939L87.0088 27.0913L88.7236 33.9468Z" fill="#9F7140" stroke="#9F7140"/>
<path d="M93.9873 43.2866V39.8481L100.833 41.5669L93.9873 43.2866Z" fill="#9F7140" stroke="#9F7140"/>
<path d="M84.667 48.561H88.0967L86.3818 55.4165L84.667 48.561Z" fill="#9F7140" stroke="#9F7140"/>
<path d="M79.4033 39.2207V42.6592L72.5576 40.9404L79.4033 39.2207Z" fill="#9F7140" stroke="#9F7140"/>
</svg>
